<?xml version="1.0" encoding="utf-8"?>
<!-- Generator: Adobe Illustrator 21.1.0, SVG Export Plug-In . SVG Version: 6.00 Build 0)  -->
<svg version="1.1" id="Layer_1" xmlns="http://www.w3.org/2000/svg" xmlns:xlink="http://www.w3.org/1999/xlink" x="0px" y="0px"
	 viewBox="0 0 610 639" style="enable-background:new 0 0 610 639;" xml:space="preserve">
<style type="text/css">
	.st0{fill:#FFFFFF;}
	.st1{fill:#FF3300;}
	.st2{fill:#FF6600;}
	.st3{fill:#FF9900;}
	.st4{fill:url(#SVGID_1_);}
	.st5{fill:url(#SVGID_2_);}
	.st6{fill:url(#SVGID_3_);}
	.st7{fill:url(#SVGID_4_);stroke:url(#SVGID_5_);stroke-miterlimit:10;}
	.st8{fill:url(#SVGID_6_);}
	.st9{fill:url(#SVGID_7_);}
	.st10{fill:url(#SVGID_8_);}
	.st11{fill:url(#SVGID_9_);stroke:url(#SVGID_10_);stroke-miterlimit:10;}
	.st12{fill:url(#SVGID_11_);}
	.st13{fill:#FFFCF6;}
</style>
<g>
	<linearGradient id="SVGID_1_" gradientUnits="userSpaceOnUse" x1="233.0077" y1="93.8141" x2="233.604" y2="93.8141">
		<stop  offset="0" style="stop-color:#FF9900"/>
		<stop  offset="1" style="stop-color:#FF6600"/>
	</linearGradient>
	<linearGradient id="SVGID_2_" gradientUnits="userSpaceOnUse" x1="232.3613" y1="94.2142" x2="234.3182" y2="94.2142">
		<stop  offset="0" style="stop-color:#FF6600;stop-opacity:0.2"/>
		<stop  offset="1" style="stop-color:#FF9900"/>
	</linearGradient>
	<path style="fill:url(#SVGID_1_);stroke:url(#SVGID_2_);stroke-miterlimit:10;" d="M233.4,94.4l-0.4-0.8l0.6-0.3
		C233.4,94,233.4,94.4,233.4,94.4z"/>
	<path class="st0" d="M326.8,158.9v5.5c0,10.4-8.4,18.8-18.8,18.8h-31.4v34.1c0,10.4-8.4,18.8-18.8,18.8h-5.5
		c-10.4,0-18.8-8.4-18.8-18.8v-34.1h-30.4c-11.4,0-20.7-9.3-20.7-20.7v0c0-12.4,10.1-22.5,22.5-22.5h28l0.1-40
		c14.4-0.9,30.7-1.2,43.1-1.3l0,18.2l-0.1,23.1h28.3C314.7,140.1,326.8,148.5,326.8,158.9z"/>
	<linearGradient id="SVGID_3_" gradientUnits="userSpaceOnUse" x1="133.3382" y1="236.1699" x2="217.8978" y2="103.4929">
		<stop  offset="0" style="stop-color:#FFFFFF"/>
		<stop  offset="1" style="stop-color:#FFFFFF;stop-opacity:0.2"/>
	</linearGradient>
	<path class="st6" d="M222,96.5c-2.9,1-5.7,2.1-8.4,3.3c-4.6,2.1-9,4.5-13.2,7.2c0,0,0,0,0,0C173,124.7,155,155.4,155,190.3
		c0,23.6,6.7,48.3,21,76.2l-18.8,28.8c-21.9-37.6-32.5-72-32.5-105c0-53.9,33.1-100.1,80-119.6c1.3-0.5,2.6-1.1,3.9-1.6
		c1.9-0.5,3.9-0.6,6.1-0.3c6.8,1,12.3,6.6,13.1,13.5c0,0.1,0,0.1,0,0.2C228.4,88.2,226,93.3,222,96.5z"/>
	<path class="st0" d="M383.4,190.3c0,67.5-47.2,135.1-118,215.9L254.3,419l-11.4-12.5c-39.7-43.5-66.9-78.8-85.7-111.2c0,0,0,0,0,0
		l18.8-28.8c16,31,41.5,65.8,77.9,106.9c60-69.9,99.3-128.4,99.3-183.1c0-39.6-23.3-73.8-57-89.7v0c-4.2-2-8.6-3.7-13.2-5.1
		c-3.4-1-6.8,1.5-6.8,5.1v0c-12.4,0.1-28.7,0.4-43.1,1.3l0-8.3l0.4,0.8c0,0,0.1-0.4,0.2-1.2c1.3-6.4,9.6-36.9,50.1-28.9
		c21.2,5,40.5,15.2,56.3,29.3C366.6,117.3,383.4,151.9,383.4,190.3z"/>
</g>
<g>
	<path class="st13" d="M156.2,483.6v24.6h-11.1v-24.6l-13.5-45.3h11.6l7.4,25.1l7.6-25.1h11.6L156.2,483.6z"/>
	<path class="st13" d="M191.9,497.1h-12.6l-2,11.1h-11.2l14-69.9h11l14,69.9h-11.2L191.9,497.1z M190,486.1l-4.4-25.1l-4.4,25.1H190
		z"/>
	<path class="st13" d="M243.3,508.2h-11.2l-5.7-28.1h-5v28.1h-11v-69.9H227c4.7,0,8.6,1.4,11.6,4.2c3.3,3.1,5,7.4,5,13v7.5
		c0,5.7-1.7,10-5,13.1c-0.5,0.5-1,0.9-1.6,1.3L243.3,508.2z M232.6,455.5c0-2.3-0.5-4-1.5-5c-0.9-0.8-2.2-1.2-4.1-1.2h-5.6v19.9h5.6
		c1.9,0,3.2-0.4,4.1-1.2c1-0.9,1.5-2.6,1.5-5V455.5z"/>
	<path class="st13" d="M261.1,449.3v17.6h12.4v11h-12.4v19.4h18v11h-29v-69.9h29v11H261.1z"/>
	<path class="st13" d="M300.8,509c-4.8,0-8.7-1.4-11.6-4.1c-3.3-3.2-5-7.6-5-13.1v-9.1h11v9.1c0,2.4,0.5,4.1,1.5,5
		c0.9,0.8,2.2,1.2,4.1,1.2c1.9,0,3.3-0.4,4.1-1.2c1-0.9,1.5-2.5,1.5-5v-4.4c0-3.1-1.2-5.7-3.7-8c-0.5-0.5-1.9-1.3-4.2-2.6
		c-3.1-1.7-5.4-3.1-6.9-4.4c-2.4-2.1-4.2-4.6-5.5-7.3c-1.3-2.7-1.9-5.7-1.9-8.8v-1.7c0-5.5,1.7-9.9,5-13.1c2.9-2.7,6.8-4.1,11.6-4.1
		c4.8,0,8.7,1.4,11.6,4.1c3.3,3.2,5,7.6,5,13.1v6.1h-11v-6.1c0-2.5-0.5-4.1-1.5-5c-0.8-0.8-2.2-1.2-4.1-1.2c-1.9,0-3.2,0.4-4.1,1.2
		c-1,0.9-1.5,2.6-1.5,5v1.7c0,3.1,1.2,5.7,3.7,7.9c0.7,0.5,2,1.3,3.9,2.4c3.5,1.9,5.9,3.4,7.2,4.6c4.9,4.4,7.4,9.8,7.4,16.2v4.4
		c0,5.5-1.7,9.9-5,13.1C309.5,507.6,305.6,509,300.8,509z"/>
	<path class="st13" d="M346.8,497.1h-12.6l-2,11.1h-11.2l14-69.9h11l14,69.9h-11.2L346.8,497.1z M344.9,486.1l-4.4-25.1l-4.4,25.1
		H344.9z"/>
</g>
</svg>
